/* XPM */
static char *captura_tela[] = {
/* columns rows colors chars-per-pixel */
"48 48 131 2 ",
"   c #000101",
".  c #02050A",
"X  c #090909",
"o  c #060D16",
"O  c #060F1C",
"+  c #09111E",
"@  c #121213",
"#  c #1B1B1B",
"$  c #041124",
"%  c #06162D",
"&  c #1C1F20",
"*  c #071934",
"=  c #081A33",
"-  c #071E3E",
";  c #081E3D",
":  c #1D2122",
">  c #232424",
",  c #242729",
"<  c #252A2B",
"1  c #2A2D2E",
"2  c #2A2F30",
"3  c #2E3436",
"4  c #2F3638",
"5  c #313434",
"6  c #313738",
"7  c #343A3C",
"8  c #3B3D3D",
"9  c #0D2140",
"0  c #0C264C",
"q  c #092753",
"w  c #0B2A57",
"e  c #0A2B5B",
"r  c #373F40",
"t  c #383F42",
"y  c #092E63",
"u  c #0B316B",
"i  c #08387F",
"p  c #3A4244",
"a  c #3E4648",
"s  c #3F484A",
"d  c #444545",
"f  c #414749",
"g  c #42494C",
"h  c #4B4C4C",
"j  c #50504F",
"k  c #454F51",
"l  c #475154",
"z  c #4B5355",
"x  c #4D5759",
"c  c #4F585A",
"v  c #525354",
"b  c #505658",
"n  c #525B5D",
"m  c #5A5C5C",
"M  c #60615E",
"N  c #545E61",
"B  c #5A5F60",
"V  c #566063",
"C  c #5D6365",
"Z  c #5F6668",
"A  c #626363",
"S  c #616668",
"D  c #676969",
"F  c #6A6C6C",
"G  c #616D71",
"H  c #6B6E71",
"J  c #677377",
"K  c #6A7376",
"L  c #6C767A",
"P  c #6E797D",
"I  c #747474",
"U  c #747778",
"Y  c #74797B",
"T  c #7B7B7B",
"R  c #B67918",
"E  c #BE7E19",
"W  c #C48015",
"Q  c #D48E1E",
"!  c #D6952B",
"~  c #E49B27",
"^  c #083C8B",
"/  c #0B4396",
"(  c #074299",
")  c #0846A2",
"_  c #014DBD",
"`  c #737E80",
"'  c #768183",
"]  c #7D8081",
"[  c #7C8689",
"{  c #7F898C",
"}  c #828283",
"|  c #848789",
" . c #858A8C",
".. c #8B8C8C",
"X. c #8E8F90",
"o. c #8B9194",
"O. c #949595",
"+. c #969A9C",
"@. c #9B9C9B",
"#. c #9FA09D",
"$. c #A1A29F",
"%. c #9C9FA1",
"&. c #9FA2A3",
"*. c #A3A4A4",
"=. c #A8A9A7",
"-. c #A2A6A8",
";. c #A6AAAB",
":. c #ABACAC",
">. c #AEAFB0",
",. c #AEB1B3",
"<. c #B4B4B4",
"1. c #B7B8B9",
"2. c #BBBCBC",
"3. c #BDBFC0",
"4. c #BEC0C0",
"5. c #C3C4C4",
"6. c #C6C8C8",
"7. c #CDCDCD",
"8. c #CFD4D6",
"9. c #D4D4D4",
"0. c #D8D8D7",
"q. c #DBDBDB",
"w. c #E1E1DF",
"e. c #E4E4E3",
"r. c #E8E8E6",
"t. c #E7E9EB",
"y. c #ECECEC",
"u. c #EFF1F2",
"i. c #F3F3F3",
"p. c #FBFBFB",
"a. c None",
/* pixels */
"a.a.a.a.a.a.a.a.a.a.a.a.a.a.a.a.a.a.a.a.a.a.a.a.a.a.a.a.a.a.a.a.a.a.a.a.a.a.a.a.a.a.a.a.a.a.a.a.",
"a.a.a.a.a.a.a.a.a.a.a.a.a.a.a.a.a.a.a.a.a.a.a.a.a.a.a.a.a.a.a.a.a.a.a.a.a.a.a.a.a.a.a.a.a.a.a.a.",
"a.a.a.a.a.a.a.a.a.a.a.a.a.a.a.a.a.a.a.a.a.a.a.a.a.a.a.a.a.a.a.a.a.a.a.a.a.a.a.a.a.a.a.a.a.a.a.a.",
"a.a.a.a.a.a.a.a.a.a.a.a.a.a.a.a.a.a.a.a.a.a.a.a.a.a.a.a.a.a.a.a.a.a.a.a.a.a.a.a.a.a.a.a.a.a.a.a.",
"a.a.a.a.a.a.a.a.a.a.a.a.a.a.a.a.a.a.a.a.a.a.a.a.a.a.a.a.a.a.a.a.a.a.a.a.a.a.a.a.a.a.a.a.a.a.a.a.",
"a.a.a.a.a.a.a.a.a.a.a.a.a.a.a.a.a.a.a.a.a.a.a.a.a.a.a.a.a.a.a.a.a.a.a.a.a.a.a.a.a.a.a.a.a.a.a.a.",
"a.a.a.a.a.a.a.> > > > > > a.a.a.a.a.a.a.a.a.a.a.a.a.a.a.a.a.a.a.a.a.a.a.a.a.a.a.a.a.a.a.a.a.a.a.",
"a.a.a.a.a.> h } >.6.7.6.>.T 1 1 5 2 5 5 5 5 6 7 7 7 7 7 7 7 7 7 6 7 5 5 5 5 5 2 2 2 < 1 a.a.a.a.",
"a.a.a.A 8 F 5.@.I M M T =.y.7.D I ..=.7.*.:.:.:.:.<.2.2.5.5.2.<.,.:.*.@.O.X.| } T F h d m a.a.a.",
"a.a.T T F 4.7.7.0.w.r.w.0.0.q.U :.I 0.=.A %.I D <.*.T O.T O.T O.T *.>.y.y.y.y.y.y.y.y.=.| T a.a.",
"a.a.} 9.<.<.2.9.p.p.p.p.q.7.*.<.7.O.:.> m $.e.0.7.2.} :.} :.} <.} 1.7.7.7.7.7.7.7.7.7.7.7.U a.a.",
"a.a.T 2.4.2.| j w.T $.O.I } 2.5.5.5.6.5.6.6.6.6.6.7.q.9.q.9.0.9.q.7.6.5.5.5.5.5.4.5.4.1.2.I a.a.",
"a.a.T <.N x l d 1.j T b d 7 7 7 8 8 r 7 r 7 t t t v U O.$.:.:.*.O.L b p p p p g h f 7 z 5.U a.a.",
"a.a.T 2.n l H H D F M U n I 7.2.1.y.i.t.5.$.H d ..1.4.4.2.>.$.$.:.>.>...a 7 7 t p @ 5 5 6.I a.a.",
"a.a.T 5.n l n b g v h b j } 7.2.1.y.i.r.5.%.} *.q.i.r.0.6.2.:.O.U X.>.1.&.S r p a # X 8 9.I a.a.",
"a.a.T 7.n l g p 7 5 3 3 3 } j d d d d d d j O.q.p.i.u.e.9.5.<.*.X.| T ..4.>.] g a g h l 0.I a.a.",
"a.a.T 9.n l k t r 3 3 3 3 I } } } } } } } >.2.6.t.p.7...m 5 5 h M } =.O.} 2.2.T d f l z w.I a.a.",
"a.a.T 0.n l g t r 3 3 3 3 3 3 6 5 5 5 m %.w.7.<.9...5 T *.w.9.*.I 1 M <.=.$.0.*.S f k z e.I a.a.",
"a.a.T w.n l k t 4 3 3 3 3 3 3 3 3 3 d } 7.q.0.,.j m 6.e.u.p.i.e.0.2.d d $.5.7.7. .x k z t.I a.a.",
"a.a.` t.n l k t r 3 3 3 3 3 6 3 3 3 F 1.9.q.q.Z } 7.q.e.u.p.i.r.9.7.2.M d 2.O.| 4.L k z y.I a.a.",
"a.a.T u.n l g t 4 3 3 3 3 3 6 4 4 a ` 7.9.0.-.} 9.w.e.y.i.y.w.0.7.6.2.:.8 T <.n 6.} c z i.I a.a.",
"a.a.T i.n l g t r 2 3 3 3 3 3 3 3 j ..7.7.7.K 6.p.y.i.9.2.:.*.=.2.2.1.:.| 5 :.] O.O.V z p.I a.a.",
"a.a.T p.n l g t r 3 3 3 5 5 3 5 3 z @.9.7.>.X.9.y.r.e.7.<.$.*.:.2.6.2.:.#.v } O.U *.B z p.I a.a.",
"a.a.T i.n H +.1.9.u.u.q.5.=.` B t j <.7.7.+.o.9.r.9.| I I I I I I } 4.1.$.F F *.S <.b z p.I a.a.",
"a.a.T i.>.2.=.O.} T B :.e.w.;.>.m d 6.9.7.[ *.0.q.D   . .   .       *.3.,.} m :.<.2.z z p.I a.a.",
"a.a.T y.x k h v A H T H A j d 2 1 8 >.7.7.` 2.0.4.8 $ ) _ / e = .   | 1.2.@.n *.>.*.h l i.U a.a.",
"a.a.T e.n k t 3 , & : & > , 1 3 3 5 X.7.8.K 5.9.:.> q ^ / ^ w % .   H =.5.:.V @.=.} d l y.I a.a.",
"a.a.T w.n l g t r 3 3 3 3 3 3 4 5 2 S 9.7.J 7.9.@.@ 0 y y w ; +     m #.7.2.G #.&.B p v r.I a.a.",
"a.a.T 0.n l s p 4 3 3 3 3 3 4 3 4 2 t 7.7.` 7.7.#.1 $ 9 ; * $ .     K &.0.4.P :.@.8 f z e.I a.a.",
"a.a.T 7.n l g p r 3 3 3 3 4 3 4 4 4 : O.7.o.3.8.=.g . o + o .       o.<.w.2. .,.U , l z w.I a.a.",
"a.a.T 6.N l s p 4 3 3 3 3 4 4 4 5 4 2 , 2.&.:.9.2.H > # X X X X < 2 -.9.t.;.&.:.< p k l q.U a.a.",
"a.a.T 3.n l g p r 3 3 3 3 3 4 4 4 5 5 < h 3.[ 7.7.&.8.u.u.u.u.i.i.t.,.i.y.{ 5.h 4 g k b 9.U a.a.",
"a.a.T 1.n l s p r 3 3 3 3 4 3 4 4 5 4 4 & I %.-.7.6.=.+.+.O.+.O.@.=.y.p.,.>.T , a s l l 8.I a.a.",
"a.a.T :.N l s p 4 3 3 3 3 4 4 3 3 4 4 4 3 : g ` 3.7.7.1.:.@.#.=.:.5.e.q.' v : r E Q ! z 6.I a.a.",
"a.a.T *.n l s p r 3 3 3 3 4 3 4 3 3 3 5 3 3 , < K -.6.6.6.7.9.0.5.:.&.K 2 < 7 8 W Q ~ z 5.I a.a.",
"a.a.T *.N l g p 4 4 3 3 3 3 4 3 3 3 3 3 3 2 3 2 & l Y =.2.5.5.2.=.L k > 3 4 6 7 R Q ! N 5.I a.a.",
"a.a.T X.| C h p 7 5 3 5 3 4 4 4 5 2 3 2 2 2 2 2 2 < 2 t b V V b t 2 < 2 3 2 3 7 t f S #.2.U a.a.",
"a.a.A v X.=.:.>.>.,.<.2.3.6.7.7.9.7.6.5.4.4.2.5.5.5.6.5.5.5.5.2.2.2.2.<.<.<.,.2.2.4.5.1.I H a.a.",
"a.a.a.v h 5 > > > > > , > > , > > > > & # # # # # # # # # # # # # # # # # # # # & > > 7 j a.a.a.",
"a.a.a.a.a.a.a.a.a.a.a.a.a.a.a.a.a.a.a.a.a.a.a.a.a.a.a.a.a.a.a.a.a.a.a.a.a.a.a.a.a.a.a.a.a.a.a.a.",
"a.a.a.a.a.a.a.a.a.a.a.a.a.a.a.a.a.a.a.a.a.a.a.a.a.a.a.a.a.a.a.a.a.a.a.a.a.a.a.a.a.a.a.a.a.a.a.a.",
"a.a.a.a.a.a.a.a.a.a.a.a.a.a.a.a.a.a.a.a.a.a.a.a.a.a.a.a.a.a.a.a.a.a.a.a.a.a.a.a.a.a.a.a.a.a.a.a.",
"a.a.a.a.a.a.a.a.a.a.a.a.a.a.a.a.a.a.a.a.a.a.a.a.a.a.a.a.a.a.a.a.a.a.a.a.a.a.a.a.a.a.a.a.a.a.a.a.",
"a.a.a.a.a.a.a.a.a.a.a.a.a.a.a.a.a.a.a.a.a.a.a.a.a.a.a.a.a.a.a.a.a.a.a.a.a.a.a.a.a.a.a.a.a.a.a.a.",
"a.a.a.a.a.a.a.a.a.a.a.a.a.a.a.a.a.a.a.a.a.a.a.a.a.a.a.a.a.a.a.a.a.a.a.a.a.a.a.a.a.a.a.a.a.a.a.a.",
"a.a.a.a.a.a.a.a.a.a.a.a.a.a.a.a.a.a.a.a.a.a.a.a.a.a.a.a.a.a.a.a.a.a.a.a.a.a.a.a.a.a.a.a.a.a.a.a.",
"a.a.a.a.a.a.a.a.a.a.a.a.a.a.a.a.a.a.a.a.a.a.a.a.a.a.a.a.a.a.a.a.a.a.a.a.a.a.a.a.a.a.a.a.a.a.a.a.",
"a.a.a.a.a.a.a.a.a.a.a.a.a.a.a.a.a.a.a.a.a.a.a.a.a.a.a.a.a.a.a.a.a.a.a.a.a.a.a.a.a.a.a.a.a.a.a.a."
};
