/* XPM */
static const char *chromium[] = {
/* columns rows colors chars-per-pixel */
"48 48 101 2 ",
"   c #1866D1",
".  c #1967D1",
"X  c #1967D2",
"o  c #1967D3",
"O  c #1A66D2",
"+  c #1A67D2",
"@  c #1E6AD4",
"#  c #226DD7",
"$  c #2771D4",
"%  c #2C74DB",
"&  c #367AD7",
"*  c #1A73E8",
"=  c #3B7FE2",
"-  c #3684EB",
";  c #3784EB",
":  c #4082E4",
">  c #4485E6",
",  c #4E8CEB",
"<  c #538FED",
"1  c #5396ED",
"2  c #5396EE",
"3  c #5C96F1",
"4  c #6199F0",
"5  c #619AF4",
"6  c #669BF5",
"7  c #659CF4",
"8  c #659DF5",
"9  c #669CF4",
"0  c #669CF5",
"q  c #669EF5",
"w  c #669CF6",
"e  c #679CF6",
"r  c #669DF6",
"t  c #679EF6",
"y  c #6B9FF6",
"u  c #7EA9E5",
"i  c #7EA9E6",
"p  c #6FA2F6",
"a  c #70A3F7",
"s  c #78A8F7",
"d  c #79A9F7",
"f  c #8CB3E9",
"g  c #9ABCEF",
"h  c #81AEF7",
"j  c #8CB9F3",
"k  c #8AB4F8",
"l  c #8EB7F8",
"z  c #93B9F8",
"x  c #A9C6EE",
"c  c #A9CAF6",
"v  c #A9CBF6",
"b  c #A3C4FA",
"n  c #A5C5F9",
"m  c #A8C7F9",
"M  c #A9C7FA",
"N  c #AAC8F9",
"B  c #ADC9F9",
"V  c #AEC9F8",
"C  c #ADCBF9",
"Z  c #AFCAF9",
"A  c #AECBF9",
"S  c #ADCAFA",
"D  c #ADCBFA",
"F  c #AECBFA",
"G  c #AFCCFA",
"H  c #B2CEFA",
"J  c #B3CEFA",
"K  c #B8D3F7",
"L  c #B8D3F8",
"P  c #B8D1FA",
"I  c #B8D1FB",
"U  c #BBD4FB",
"Y  c #C5D9F4",
"T  c #C5DAFB",
"R  c #CADDFA",
"E  c #CDDFFC",
"W  c #D3E5FB",
"Q  c #D4E5FB",
"!  c #D1E1FC",
"~  c #D1E2FC",
"^  c #D1E2FD",
"/  c #D6E5FD",
"(  c #D7E5FD",
")  c #D8E7FD",
"_  c #E3ECF9",
"`  c #E2ECFA",
"'  c #E1EBFD",
"]  c #E2EDFC",
"[  c #E3EDFC",
"{  c #E2EEFC",
"}  c #E3EEFC",
"|  c #EAF2FE",
" . c #EBF2FE",
".. c #EBF3FE",
"X. c #F1F5FC",
"o. c #F5F8FE",
"O. c #F5F9FE",
"+. c #F5F9FF",
"@. c #FAFCFF",
"#. c white",
"$. c None",
/* pixels */
"$.$.$.$.$.$.$.$.$.$.$.$.$.$.$.$.$.$.$.X X X X X X X X X X $.$.$.$.$.$.$.$.$.$.$.$.$.$.$.$.$.$.$.",
"$.$.$.$.$.$.$.$.$.$.$.$.$.$.$.$.X X X X X X X X X X X X X X X X $.$.$.$.$.$.$.$.$.$.$.$.$.$.$.$.",
"$.$.$.$.$.$.$.$.$.$.$.$.$.$.X X X X X X X X X X X X X X X X X X X X X $.$.$.$.$.$.$.$.$.$.$.$.$.",
"$.$.$.$.$.$.$.$.$.$.$.$.X X X X X X X X X X X X X X X X X X X X X X X X $.$.$.$.$.$.$.$.$.$.$.$.",
"$.$.$.$.$.$.$.$.$.$.X X X X X X X X X X X X X X X X X X X X X X X X X X X X $.$.$.$.$.$.$.$.$.$.",
"$.$.$.$.$.$.$.$.$.X X X X X X X X X X X X X X X X X X X X X X X X X X X X X X $.$.$.$.$.$.$.$.$.",
"$.$.$.$.$.$.$.$.X X X X X X X X X X X X X X X X X X X X X X X X X X X X X X X X $.$.$.$.$.$.$.$.",
"$.$.$.$.$.$.$.X X X X X X X X X X X X X X X X X X X X X X X X X X X X X X X X X X $.$.$.$.$.$.$.",
"$.$.$.$.$.$.X X X X X X X X X X X X X X X X X X X X X X X X X X X X X X X X X X X X $.$.$.$.$.$.",
"$.$.$.$.$.X X X X X X X X X X X X X X X X X X X X X X X X X X X X X X X X X X X X X X $.$.$.$.$.",
"$.$.$.$.X X X X X X X X X X X X X X X X X X X X X X X X X X X X X X X X X X X X X X X X $.$.$.$.",
"$.$.$.$.X X X X X X X X X X X X X X X X X X X X X X X X X X X X X X X X X X X X X X X X X $.$.$.",
"$.$.$.: X X X X X X X X X X X X X X X $ f Y ` #.#.o. .^ P F F F F F F F F F F F F F F F F $.$.$.",
"$.$.r 5 # X X X X X X X X X X X X & Y #.#.#.#.#.#.#.#.#.#.' P F F F F F F F F F F F F F F F $.$.",
"$.$.r r , X X X X X X X X X X X i X.#.#.#.} c j j P Q #.#.#.@.^ F F F F F F F F F F F F F F $.$.",
"$.$.r r r % X X X X X X X X X f #.#.#.c 2 * * * * * * ; c #.#.#./ F F F F F F F F F F F F F $.$.",
"$.r r r r < X X X X X X X X i #.#.} 2 * * * * * * * * * * 2 } #.#.^ F F F F F F F F F F F F F $.",
"$.r r r r r = X X X X X X & X.#.} ; * * * * * * * * * * * * ; } #.@.P F F F F F F F F F F F F $.",
"$.r r r r r 5 @ X X X X X x #.#.2 * * * * * * * * * * * * * * 2 #.#. .F F F F F F F F F F F F $.",
"r r r r r r r : X X X X & #.#.c * * * * * * * * * * * * * * * * c #.#.H F F F F F F F F F F F F ",
"r r r r r r r r # X X X i #.#.; * * * * * * * * * * * * * * * * 2 #.#./ F F F F F F F F F F F F ",
"r r r r r r r r < X X X Y #.Q * * * * * * * * * * * * * * * * * * } #. .F F F F F F F F F F F F ",
"r r r r r r r r r % X X X.#.P * * * * * * * * * * * * * * * * * * c #.o.F F F F F F F F F F F F ",
"r r r r r r r r r 3 X X #.#.j * * * * * * * * * * * * * * * * * * j #.#.F F F F F F F F F F F F ",
"r r r r r r r r r r = X #.#.j * * * * * * * * * * * * * * * * * * j #.#.F F F F F F F F F F F F ",
"r r r r r r r r r r 5 @ ` #.c * * * * * * * * * * * * * * * * * * K #.@.F F F F F F F F F F F F ",
"r r r r r r r r r r r > Y #.} * * * * * * * * * * * * * * * * * * W #. .F F F F F F F F F F F F ",
"r r r r r r r r r r r r g #.#.2 * * * * * * * * * * * * * * * * ; #.#.^ F F F F F F F F F F F F ",
"r r r r r r r r r r r r 4 #.#.c * * * * * * * * * * * * * * * * c #.#.P F F F F F F F F F F F F ",
"$.r r r r r r r r r r r r R #.#.2 * * * * * * * * * * * * * * 2 #.#.' F F F F F F F F F F F F $.",
"$.r r r r r r r r r r r r d o.#.} ; * * * * * * * * * * * * ; } #.o.P F F F F F F F F F F F F $.",
"$.r r r r r r r r r r r r r M #.#.} 2 * * * * * * * * * * 2 } #.#.E F F F F F F F F F F F F F $.",
"$.$.r r r r r r r r r r r r r H #.#.#.c ; * * * * * * 2 c #.#.#.U N F F F F F F F F F F F F $.$.",
"$.$.r r r r r r r r r r r r r r M o.#.#.#.Q P j j c } #.#.#.o.b z F F F F F F F F F F F F F $.$.",
"$.$.6 r r r r r r r r r r r r r r d T #.#.#.#.#.#.#.#.#.#.) d p F F F F F F F F F F F F F G $.$.",
"$.$.$.r r r r r r r r r r r r r r r r d M ) o.#.#. .) H a r r n F F F F F F F F F F F F F $.$.$.",
"$.$.$.6 r r r r r r r r r r r r r r r r r r r r r r r r r r h F F F F F F F F F F F F F F $.$.$.",
"$.$.$.$.r r r r r r r r r r r r r r r r r r r r r r r r r y n F F F F F F F F F F F F F $.$.$.$.",
"$.$.$.$.$.r r r r r r r r r r r r r r r r r r r r r r r r k F F F F F F F F F F F F F $.$.$.$.$.",
"$.$.$.$.$.$.r r r r r r r r r r r r r r r r r r r r r r p F F F F F F F F F F F F F $.$.$.$.$.$.",
"$.$.$.$.$.$.6 r r r r r r r r r r r r r r r r r r r r r z F F F F F F F F F F F F F $.$.$.$.$.$.",
"$.$.$.$.$.$.$.6 r r r r r r r r r r r r r r r r r r r d F F F F F F F F F F F F F $.$.$.$.$.$.$.",
"$.$.$.$.$.$.$.$.$.r r r r r r r r r r r r r r r r r r n F F F F F F F F F F F $.$.$.$.$.$.$.$.$.",
"$.$.$.$.$.$.$.$.$.$.r r r r r r r r r r r r r r r r h F F F F F F F F F F F $.$.$.$.$.$.$.$.$.$.",
"$.$.$.$.$.$.$.$.$.$.$.6 r r r r r r r r r r r r r p n F F F F F F F F F F $.$.$.$.$.$.$.$.$.$.$.",
"$.$.$.$.$.$.$.$.$.$.$.$.$.r r r r r r r r r r r r l F F F F F F F F F $.$.$.$.$.$.$.$.$.$.$.$.$.",
"$.$.$.$.$.$.$.$.$.$.$.$.$.$.$.$.r r r r r r r r p F F F F F F F $.$.$.$.$.$.$.$.$.$.$.$.$.$.$.$.",
"$.$.$.$.$.$.$.$.$.$.$.$.$.$.$.$.$.$.$.r r r r r z F F F F $.$.$.$.$.$.$.$.$.$.$.$.$.$.$.$.$.$.$."
};
