/* XPM */
static char *desligar[] = {
/* columns rows colors chars-per-pixel */
"48 48 225 2 ",
"   c black",
".  c #010101",
"X  c #020202",
"o  c gray1",
"O  c #040404",
"+  c gray2",
"@  c #060606",
"#  c #070707",
"$  c #090909",
"%  c gray4",
"&  c #0B0B0B",
"*  c #0C0C0C",
"=  c gray5",
"-  c #0E0E0E",
";  c gray6",
":  c #111111",
">  c #111211",
",  c gray7",
"<  c #131313",
"1  c gray8",
"2  c #141514",
"3  c #151515",
"4  c #151615",
"5  c #161616",
"6  c gray9",
"7  c #181818",
"8  c #191919",
"9  c gray10",
"0  c #1B1B1B",
"q  c #1E1E1E",
"w  c gray12",
"e  c #202020",
"r  c gray13",
"t  c #222222",
"y  c #232323",
"u  c #252525",
"i  c gray15",
"p  c #272727",
"a  c #2A2A2A",
"s  c gray17",
"d  c #2C2C2C",
"f  c #2D2D2D",
"g  c gray18",
"h  c #2F2F2F",
"j  c gray19",
"k  c #323232",
"l  c #333433",
"z  c #353535",
"x  c #353635",
"c  c gray21",
"v  c #373737",
"b  c gray22",
"n  c #3A3A3A",
"m  c #3C3C3C",
"M  c gray24",
"N  c #3D3E3D",
"B  c #3E3E3E",
"V  c #3E3F3E",
"C  c #3F3F3F",
"Z  c #3F403F",
"A  c gray25",
"S  c #404140",
"D  c #414141",
"F  c gray26",
"G  c #424342",
"H  c #434343",
"J  c #434443",
"K  c #444444",
"L  c gray27",
"P  c #464646",
"I  c #464746",
"U  c gray28",
"Y  c #474847",
"T  c #484848",
"R  c #494949",
"E  c gray29",
"W  c #4B4B4B",
"Q  c #4C4C4C",
"!  c gray30",
"~  c #4E4F4E",
"^  c #555555",
"/  c #565656",
"(  c gray34",
")  c #585858",
"_  c #5B5B5B",
"`  c #606060",
"'  c gray39",
"]  c #646464",
"[  c #696A69",
"{  c #6C6C6C",
"}  c gray43",
"|  c gray44",
" . c #717171",
".. c gray45",
"X. c gray46",
"o. c #777777",
"O. c gray47",
"+. c #797979",
"@. c #7A7B7A",
"#. c #7C7C7C",
"$. c gray49",
"%. c #7E7E7E",
"&. c #818181",
"*. c gray51",
"=. c gray52",
"-. c gray53",
";. c gray54",
":. c #8A8B8A",
">. c #8E8E8E",
",. c #909090",
"<. c gray58",
"1. c #949594",
"2. c #959595",
"3. c #979797",
"4. c gray61",
"5. c #9E9F9E",
"6. c #A2A3A2",
"7. c #A5A5A5",
"8. c gray65",
"9. c #A6A7A6",
"0. c gray66",
"q. c gray67",
"w. c #AEAEAE",
"e. c #AEAFAE",
"r. c #AFB0AF",
"t. c #B0B1B0",
"y. c #B1B1B1",
"u. c #B1B2B1",
"i. c #B2B2B2",
"p. c #B3B4B3",
"a. c #B4B4B4",
"s. c gray71",
"d. c #B6B6B6",
"f. c #B7B8B7",
"g. c #B9B9B9",
"h. c #B9BAB9",
"j. c #BABBBA",
"k. c #BCBCBC",
"l. c gray74",
"z. c #BFC0BF",
"x. c #C1C2C1",
"c. c gray76",
"v. c #C2C3C2",
"b. c #C3C3C3",
"n. c gray77",
"m. c #C4C5C4",
"M. c #C5C5C5",
"N. c #C6C7C6",
"B. c gray78",
"V. c #C7C8C7",
"C. c #C8C8C8",
"Z. c #C8C9C8",
"A. c gray79",
"S. c #C9CAC9",
"D. c #CACACA",
"F. c #CACBCA",
"G. c #CBCBCB",
"H. c #CBCCCB",
"J. c #CCCDCC",
"K. c #CDCECD",
"L. c #CECECE",
"P. c #CECFCE",
"I. c #CFD0CF",
"U. c #D0D1D0",
"Y. c #D1D2D1",
"T. c #D2D3D2",
"R. c LightGray",
"E. c gray83",
"W. c #D4D5D4",
"Q. c #D5D5D5",
"!. c #D5D6D5",
"~. c #D6D7D6",
"^. c #D7D8D7",
"/. c #D8D8D8",
"(. c #D8D9D8",
"). c gray85",
"_. c #D9DAD9",
"`. c #DADADA",
"'. c #DADBDA",
"]. c gray86",
"[. c #DCDDDC",
"{. c #DDDDDD",
"}. c #DDDEDD",
"|. c gray87",
" X c #DEDFDE",
".X c #DFDFDF",
"XX c #DFE0DF",
"oX c gray88",
"OX c #E1E1E1",
"+X c #E1E2E1",
"@X c #E2E2E2",
"#X c #E2E3E2",
"$X c gray89",
"%X c #E3E4E3",
"&X c #E4E4E4",
"*X c #E4E5E4",
"=X c gray90",
"-X c #E5E6E5",
";X c #E6E7E6",
":X c #E7E7E7",
">X c #E7E8E7",
",X c gray91",
"<X c #E8E9E8",
"1X c #E9E9E9",
"2X c #EAEAEA",
"3X c gray92",
"4X c #EBECEB",
"5X c #ECECEC",
"6X c gray93",
"7X c #EEEEEE",
"8X c #EFEFEF",
"9X c gray94",
"0X c #F0F1F0",
"qX c #F1F1F1",
"wX c gray95",
"eX c #F3F3F3",
"rX c #F4F4F4",
"tX c gray96",
"yX c #F6F6F6",
"uX c gray97",
"iX c #F8F8F8",
"pX c gray98",
"aX c #FBFBFB",
"sX c gray99",
"dX c None",
/* pixels */
"dXdXdXdXdXdXdXdXdXdXdXdXdXdXdXdXdXdXdXdXdXdXdXdXdXdXdXdXdXdXdXdXdXdXdXdXdXdXdXdXdXdXdXdXdXdXdXdX",
"dXdXdXdXdXdXdXdXdXdXdXdXdXdXdXdXdXdXdXdXdXdXdXdXdXdXdXdXdXdXdXdXdXdXdXdXdXdXdXdXdXdXdXdXdXdXdXdX",
"dXdXdXdXdXdX                                                                      dXdXdXdXdXdXdX",
"dXdXdXdX                                                                            dXdXdXdXdXdX",
"dXdXdXdX    W 2.3.3.3.3.3.3.3.2.3.3.3.3.3.3.3.3.3.3.2.2.3.3.3.3.3.3.3.3.3.3.3.>.z     dXdXdXdXdX",
"dXdXdXdX  p aXsXaXaXaXsXsXaXaXaXsXsXaXaXaXaXaXaXsXsXsXaXsXsXsXsXaXaXaXsXaXaXaXaX-X+   dXdXdXdXdX",
"dXdXdXdX  ! aXaXaXiXaXaXaXaXaXaXaXaXaXaXaXaXaXaXaXaXaXaXaXaXaXaXaXiXaXaXaXaXiXaXaX6     dXdXdXdX",
"dXdXdXdX  ! uXuXiXiXiXiXiXiXiXiXiXiXiXiXiXiXiXiXiXiXiXiXuXiXiXiXiXiXiXiXiXiXiXiXiX3     dXdXdXdX",
"dXdXdXdX  ! iXuXuXuXuXuXuXuXuXiXuXuXuXuXuXOX0.' y.3XuXuXuXuXuXuXiXiXiXiXiXuXiXiXaX3     dXdXdXdX",
"dXdXdXdX  W uXrXuXrXuXrXuXrXrXrXuXuX0XuXuX4.a   F a.uXuX0XuXrXuXrXuXrXrXrXrXrXrXuX3     dXdXdXdX",
"dXdXdXdX  ! rXuXrXrX0XrXuXrX0XuX0XuXuXOXc.q       C R.3XrXrX0XuXrXrXrXrXrXrXrXrX0X3     dXdXdXdX",
"dXdXdXdX  W 0X0XrX0XrX0X0XrX0X0X5X<.c 9             % t W D.0X0X0XrX0X0X0XrX9XrX0X3     dXdXdXdX",
"dXdXdXdX  W 0X0X9X9X0X9X9X9X9XE.W O                       3 *.3X0X0X9X9X9X9X0X0X0X3     dXdXdXdX",
"dXdXdXdX  W 0X5X5X9X9X0X9X5X2.9                               C M.0X9X9X5X9X9X0X0X6     dXdXdXdX",
"dXdXdXdX  W 3X5X5X5X5X5X5X} O                                   9 g.5X5X5X5X5X5X5X3     dXdXdXdX",
"dXdXdXdX  W 3X3X5X5X5X5Xy.*           j ..9       d ' 3           b %X5X5X5X5X5X5X3     dXdXdXdX",
"dXdXdXdX  T 3X3X3X3X3X.Xa         * ..5X5Xt       W uXM.C           o.3X3X3X5X5X3X1     dXdXdXdX",
"dXdXdXdX  T -X3X-X3X-X_         q l.sX5XOXw       W 0X:XoX+.+       * g.:X-X:X:X:X1     dXdXdXdX",
"dXdXdXdX  Y -X-X-X-Xy.%       + 7.iX3X-X.Xq       W 0X-X-XOXW         b OX-X-X-X:X3     dXdXdXdX",
"dXdXdXdX  L -X-X-X-X..        ) aX-X-X-X.Xt       W 9X-X-X-XD.9       * ~.-X-X-X-X3     dXdXdXdX",
"dXdXdXdX  L -X-X&XOXL       , oX5X&X%X%X.Xw       W 0X%X-X-XOXO.        r.%X%X%X&X3     dXdXdXdX",
"dXdXdXdX  L OXOXOX.Xp       d uXOXOXOXOX'.w       W 0XOXOXOXOXy.        +.-XOXOXOX1     dXdXdXdX",
"dXdXdXdX  L XXOXOXM.*       ) 0XOXXXOX.X(.w       W 8XOXXXXXOXL.3       W :XOX.XOX3     dXdXdXdX",
"dXdXdXdX  L .X.X.X7.        ;.3X.X.X.X.X^.w       W 5X.X.X.X.X.Xd       p -X.X.X.X,     dXdXdXdX",
"dXdXdXdX  L .X.X.Xw.        %.OX]..X.X].'.G     + +.5XoX.X.X].(.p       d 0X.X].XX>     dXdXdXdX",
"dXdXdXdX  L (.(.(.D.3       W -X].].(..X.X2.G + ' D.OX].(.].].M.,       ) 0X].].'.3     dXdXdXdX",
"dXdXdXdX  K (.(.(.(.s       p %X(.(.(.(.(.R.r.1.E.XX(.(.(.(.(.5.        -.3X(.(.(.3     dXdXdXdX",
"dXdXdXdX  K (.(.(.(.!       % g.(.(.~.).(.~.^.^.(.(.(.(.).).).)         c.OX~.(.^.3     dXdXdXdX",
"dXdXdXdX  F ~.~.^.^.o.        c L.~.~.~.^.^.E.^.~.~.~.~.~.~.4.*       > %X^.~.~.~.,     dXdXdXdX",
"dXdXdXdX  F ~.~.E.E.f.4         } ~.~.E.E.E.E.E.R.~.R.~.~.M.p         ( uXE.E.E.~.,     dXdXdXdX",
"dXdXdXdX  C R.R.R.R.E.%.        * } D.R.E.R.R.R.R.R.E.R.s.b         t %X%XR.R.R.R.3     dXdXdXdX",
"dXdXdXdX  F I.R.R.I.R.I.L           j 7.I.R.I.R.I.R.D.O.1         # 7.8XR.I.R.I.R.,     dXdXdXdX",
"dXdXdXdX  F L.I.I.I.I.I.f.0           * d ~ #.2.[ F y             ) aXE.I.I.I.I.I.>     dXdXdXdX",
"dXdXdXdX  F L.I.I.L.I.I.L.:.9                                 o Z 3XXXI.I.I.I.L.I.>     dXdXdXdX",
"dXdXdXdX  Z L.F.F.L.F.F.L.L.s.L o                           , *.uX-XF.L.F.L.F.L.F.>     dXdXdXdX",
"dXdXdXdX  Z F.F.F.F.F.L.D.F.D.V.*.3                       b F.yXR.F.F.F.L.F.F.F.F.>     dXdXdXdX",
"dXdXdXdX  C D.D.F.V.F.V.D.D.V.D.F.p...Y p *       4 j ( 1.wX-XF.D.D.F.F.D.V.F.V.D.,     dXdXdXdX",
"dXdXdXdX  C V.V.V.V.V.V.V.V.V.V.V.V.V.^.(.I.q.,.M.-X0X3X.XI.V.V.V.V.V.V.V.V.V.V.V.3     dXdXdXdX",
"dXdXdXdX  C M.V.V.V.V.V.V.V.V.V.V.V.V.V.V.V.V.F.R.V.V.V.V.V.V.V.M.V.V.V.V.V.V.V.V.,     dXdXdXdX",
"dXdXdXdX  C v.v.v.v.V.v.v.M.v.v.v.M.v.M.v.v.M.v.v.M.v.M.v.v.v.M.v.M.v.v.v.V.v.v.v.,     dXdXdXdX",
"dXdXdXdX  m v.v.v.v.v.v.v.v.v.v.v.v.v.v.v.v.v.v.v.v.v.v.v.v.v.v.v.v.v.v.v.v.v.v.v.,     dXdXdXdX",
"dXdXdXdX  l c.v.v.v.c.v.c.z.v.v.v.v.c.z.v.v.c.c.z.c.v.v.z.c.c.c.z.c.c.v.z.c.c.c.z.*     dXdXdXdX",
"dXdXdXdX  o =.g.j.j.j.j.j.j.j.j.j.j.j.j.j.j.j.j.j.j.j.j.j.j.j.j.j.j.j.j.j.j.j.s.]       dXdXdXdX",
"dXdXdXdX                                                                              dXdXdXdXdX",
"dXdXdXdXdX                                                                            dXdXdXdXdX",
"dXdXdXdXdXdXdX                                                                  dXdXdXdXdXdXdXdX",
"dXdXdXdXdXdXdXdXdXdXdXdXdXdXdXdXdXdXdXdXdXdXdXdXdXdXdXdXdXdXdXdXdXdXdXdXdXdXdXdXdXdXdXdXdXdXdXdX",
"dXdXdXdXdXdXdXdXdXdXdXdXdXdXdXdXdXdXdXdXdXdXdXdXdXdXdXdXdXdXdXdXdXdXdXdXdXdXdXdXdXdXdXdXdXdXdXdX"
};
