/* XPM */
static const char *firefox[] = {
/* columns rows colors chars-per-pixel */
"16 16 172 2 ",
"   c #FF7C1E",
".  c #FF433F",
"X  c #FF473D",
"o  c #FF453E",
"O  c #FF453F",
"+  c #FF4B3B",
"@  c #FF4F38",
"#  c #FD4D3B",
"$  c #FF4D3A",
"%  c #FF483D",
"&  c #FF5137",
"*  c #FF5237",
"=  c #FF5535",
"-  c #FF5A32",
";  c #FF5D30",
":  c #FF5D36",
">  c #FF672A",
",  c #FF682A",
"<  c #FF6D2C",
"1  c #FF7224",
"2  c #FF7D23",
"3  c #FF6331",
"4  c #FF6333",
"5  c #FF6B39",
"6  c #FF7533",
"7  c #F62E4C",
"8  c #FF3D43",
"9  c #FF3945",
"0  c #FF3B44",
"q  c #FF3C44",
"w  c #FB334B",
"e  c #FB364A",
"r  c #FE3649",
"t  c #FA314D",
"y  c #FC324E",
"u  c #F9394A",
"i  c #ED2258",
"p  c #EE2259",
"a  c #F02653",
"s  c #F32A52",
"d  c #F72C53",
"f  c #F22359",
"g  c #F33652",
"h  c #E10E68",
"j  c #E10E69",
"k  c #E20D6A",
"l  c #E30D6C",
"z  c #E30C6D",
"x  c #E30D6D",
"c  c #E60F6D",
"v  c #E21363",
"b  c #E91762",
"n  c #ED1865",
"m  c #EB126C",
"M  c #E50B70",
"N  c #F33861",
"B  c #976277",
"V  c #C1575E",
"C  c #D95152",
"Z  c #FF4141",
"A  c #FD4440",
"S  c #F7614D",
"D  c #F8625B",
"F  c #FA7E51",
"G  c #CD6362",
"H  c #FF8A16",
"J  c #FF8D15",
"K  c #FF801C",
"L  c #FF8D1C",
"P  c #FF9D13",
"I  c #FF9914",
"U  c #FF941A",
"Y  c #FFA51D",
"T  c #FFAB1C",
"R  c #FFAD1D",
"E  c #FF9A2B",
"W  c #E2893A",
"Q  c #FF8634",
"!  c #FF8833",
"~  c #FE8C3C",
"^  c #FF9237",
"/  c #FF9F3A",
"(  c #FF9E3B",
")  c #FFAD20",
"_  c #FAA428",
"`  c #F6A829",
"'  c #FFAB29",
"]  c #FFB523",
"[  c #FFB623",
"{  c #FFA835",
"}  c #FFB935",
"|  c #FFB43B",
" . c #FEBC3D",
".. c #FFC02B",
"X. c #FFC22C",
"o. c #FFC43B",
"O. c #FFCA3F",
"+. c #FFCE3C",
"@. c #FFD036",
"#. c #FFD338",
"$. c #FFD33A",
"%. c #FFD83D",
"&. c #FFDB3E",
"*. c #F69547",
"=. c #FD9D52",
"-. c #FDA343",
";. c #FEA542",
":. c #FFA64A",
">. c #FFBC47",
",. c #FEB04F",
"<. c #EBA35D",
"1. c #EFBF5E",
"2. c #E1AF63",
"3. c #E2A171",
"4. c #E0A07C",
"5. c #FFCD46",
"6. c #FEC44C",
"7. c #FFD741",
"8. c #FFD046",
"9. c #FFDE40",
"0. c #FFDF40",
"q. c #FFDF42",
"w. c #FFD946",
"e. c #FFDC45",
"r. c #FFDD46",
"t. c #FED549",
"y. c #FFD848",
"u. c #FFDB48",
"i. c #FFE141",
"p. c #FFE243",
"a. c #FFE645",
"s. c #FFE24A",
"d. c #FFE24B",
"f. c #FFE948",
"g. c #FFEA48",
"h. c #FFEC49",
"j. c #FFED4A",
"k. c #FFEF4C",
"l. c #FFF04C",
"z. c #FFF14D",
"x. c #613EBC",
"c. c #5841B6",
"v. c #7036C2",
"b. c #5A4AC0",
"n. c #6345C4",
"m. c #6152CF",
"M. c #7F44DC",
"N. c #665ADB",
"B. c #7255E0",
"V. c #7658E7",
"C. c #7D5EF2",
"Z. c #8D4587",
"A. c #8F4389",
"S. c #8554BD",
"D. c #C45AB5",
"F. c #D074A4",
"G. c #8D37C1",
"H. c #9137D7",
"J. c #B036DE",
"K. c #BB3CE8",
"L. c #B83EE9",
"P. c #AA4CC8",
"I. c #BD4ECE",
"U. c #B954D7",
"Y. c #904AED",
"T. c #8857F6",
"R. c #9C51F8",
"E. c #A048EF",
"W. c #B44BE0",
"Q. c #C559C0",
"!. c #BC86B3",
"~. c None",
/* pixels */
"~.~.~.~.~.~.~.~.~.z.z.~.~.~.~.~.",
"~.~.~.~.~.~.~.~.~.k.z.j.~.~.~.~.",
"~.~.~.~.~.~.~.~.i.f.j.f.~.~.~.~.",
"~.~.I ~.( | ~.~.$.q.a.a.i.d.~.~.",
"~.  H U E *.J.Q.F.4.%.q.q.e.d.~.",
"~.1 K J P _ D.L.L.I.3.$.7.w.y.~.",
"; , L Y ) R ] <.U.W.1.%.O.5.y.e.",
"# ; 2 T ] ..2.!.R.E.P.@.o.>.8.t.",
"u * ; > ` S.V.C.T.Y.H.X.} :.+.6.",
"e X * - W x.m.N.B.M.G.' ( ;. .,.",
"n q X # < B c.b.n.v.G ! ~ { -.=.",
"~.f 9 Z % 3 V Z.A.C 3 6 Q ^ F ~.",
"~.c d r 9 Z X + # * = : 5 S D ~.",
"~.~.z p y r 9 8 Z . X A g N ~.~.",
"~.~.~.z v p s t w 7 a b m ~.~.~.",
"~.~.~.~.~.z k k k z M ~.~.~.~.~."
};
