/* XPM */
static char *gimp[] = {
/* columns rows colors chars-per-pixel */
"32 32 111 2 ",
"   c #030303",
".  c #0D0D0C",
"X  c #131414",
"o  c #191B1C",
"O  c #211F18",
"+  c #3F2508",
"@  c #342312",
"#  c #232424",
"$  c #2D2A21",
"%  c #212728",
"&  c #262B2C",
"*  c #292C2D",
"=  c #2F302E",
"-  c #39352B",
";  c #3F3B2F",
":  c #2E3435",
">  c #313435",
",  c #373936",
"<  c #3B3A33",
"1  c #313738",
"2  c #343A3C",
"3  c #3A3C3B",
"4  c #5D3306",
"5  c #52330F",
"6  c #6F3D08",
"7  c #633E15",
"8  c #423E34",
"9  c #684217",
"0  c #52442E",
"q  c #464135",
"w  c #494437",
"e  c #44433C",
"r  c #4C473A",
"t  c #4E483A",
"y  c #534937",
"u  c #524C3D",
"i  c #624522",
"p  c #3C4142",
"a  c #424444",
"s  c #474845",
"d  c #4D4B42",
"f  c #494B4D",
"g  c #4F524E",
"h  c #565142",
"j  c #5B5544",
"k  c #5F5847",
"l  c #5E594C",
"z  c #4F5252",
"x  c #545554",
"c  c #585855",
"v  c #545959",
"b  c #5D5E5C",
"n  c #605947",
"m  c #635D4B",
"M  c #67604E",
"N  c #6A634F",
"B  c #6B6552",
"V  c #6F6855",
"C  c #6F6859",
"Z  c #716954",
"A  c #736D5B",
"S  c #79715C",
"D  c #5D6060",
"F  c #656665",
"G  c #6C6D6D",
"H  c #706C61",
"J  c #767163",
"K  c #7A7465",
"L  c #767268",
"P  c #7E7A6E",
"I  c #727272",
"U  c #767778",
"Y  c #72797B",
"T  c #7C7D7A",
"R  c #98560F",
"E  c #AB6211",
"W  c #BD6910",
"Q  c #8C5D26",
"!  c #827E71",
"~  c #818076",
"^  c #82837C",
"/  c #858682",
"(  c #878984",
")  c #898B84",
"_  c #8B8D88",
"`  c #8E908B",
"'  c #93948F",
"]  c #8D8F90",
"[  c #989994",
"{  c #959798",
"}  c #969B9C",
"|  c #9D9E99",
" . c #ABACA5",
".. c #A6AAAB",
"X. c #ACAEAE",
"o. c #B3B4AF",
"O. c #B6B6B3",
"+. c #BBBCB9",
"@. c #C2C2BB",
"#. c #C5C5C2",
"$. c #CCCCC6",
"%. c #CFCFCD",
"&. c #D3D4D3",
"*. c #DCDDDA",
"=. c #E2E2DF",
"-. c #E6E6E4",
";. c #E9E9E7",
":. c #EFEFEE",
">. c #F1F1F0",
",. c #FDFDFD",
"<. c None",
/* pixels */
"<.<.<.<.<.<.<.<.<.<.<.<.<.<.<.<.<.<.<.<.<.<.<.<.<.<.<.<.<.<.<.<.",
"<.<.<.<.<.<.<.<.<.<.<.<.<.<.<.<.<.<.<.<.<.<.<.<.<.<.<.<.<.<.<.<.",
"<.<.<.<.<.<.<.<.<.<.<.<.<.<.<.<.<.<.<.<.<.<.<.<.<.<.<.<.<.<.<.<.",
"<.<.<.<.<.<.<.<.<.<.<.<.<.<.<.<.<.<.<.<.<.<.<.<.: : <.<.<.<.<.<.",
"<.<.<.<.<.<.<.<.<.<.<.<.<.<.<.<.<.<.<.<.<.<.<.: 1 : <.<.<.<.<.<.",
"<.<.<.<.<.<.: <.<.<.<.<.<.<.<.<.<.<.<.<.<.<.<.: < : <.<.<.<.<.<.",
"<.<.<.<.<.<.1 : <.<.<.<.<.<.<.<.<.<.<.<.<.1 1 q 8 : <.<.<.<.<.<.",
"<.<.<.<.<.<.: d 2 <.<.<.<.' _ _ ` <.<.<.1 s h w 8 : <.<.<.<.<.<.",
"<.<.<.<.<.<.a ! _ ^ v v _ #.:.;.o./ 3 g H m y w q > <.<.<.<.<.<.",
"<.<.<.<.<.<._ +.:.%.' ( @.;.>.;.=. ._ K l h u r q : <.<.<.<.<.<.",
"<.      <.<.| O.X.> _ _ &.=._ G # ^ ) j h h u t q 1 <.<.<.<.<.<.",
"  f ..p   O ..F ,.D : _ $.$.T ,.] X ) n j h u t q 1 <.<.<.<.<.<.",
"  &.,.} 2 X = c X X 8 _ O.@.# { 3 o ~ n j h u t 8 1 <.<.<.<.<.<.",
"  ..,.Y 2 p . / b z ~ ! _  .T X o F N k j h u y < <.<.<.<.<.<.<.",
"<.: v : % 2 3 r ~ ! S A K ( ) ) ^ V n j h u u r 1 <.<.<.<.<.<.<.",
"<.. b f # z a - Z Z Z Z Z Z Z N m j t j h h t w : <.<.<.<.<.<.<.",
"<.<.. v T U X u N N B B N N M m m q . $ h y r , & <.<.<.<.<.<.<.",
"<.<.<.      - m M m m m n j h w O   5 5 y t q : <.<.<.<.<.<.<.<.",
"<.<.<.<.<.* 1 t N V A B m j h q ; q 7 R E 9 - o <.<.<.<.<.<.<.<.",
"<.<.<.<.<.<.<.: 1 e n K ~ ! H B m h t q 7 R W 6 P <.<.<.<.<.<.<.",
"<.<.<.<.<.<.<.<.<.& 1 , q d c m h e 3 1 : @ 4 Q O.+.[ <.<.<.<.<.",
"<.<.<.<.<.<.<.<.<.<.<.o % * : : : * # o <.<.<.L _ *.:.F I <.<.<.",
"<.<.<.<.<.<.<.<.<.<.<.<.<.<.<.<.<.<.<.<.<.<.<.<.<.<.T F F > <.<.",
"<.<.<.<.<.<.<.<.<.<.<.<.<.<.<.<.<.<.<.<.<.<.<.<.<.<.<.x e % <.<.",
"<.<.<.<.<.<.<.<.<.<.<.<.<.<.<.<.<.<.<.<.<.<.<.<.<.<.<.<.& X   <.",
"<.<.<.<.<.<.<.<.<.<.<.<.<.<.<.<.<.<.<.<.<.<.<.<.<.<.<.<.<.<.<.<.",
"<.<.<.<.<.<.<.<.<.<.<.<.<.<.<.<.<.<.<.<.<.<.<.<.<.<.<.<.<.<.<.<.",
"<.<.<.<.<.<.<.<.<.<.<.<.<.<.<.<.<.<.<.<.<.<.<.<.<.<.<.<.<.<.<.<.",
"<.<.<.<.<.<.<.<.<.<.<.<.<.<.<.<.<.<.<.<.<.<.<.<.<.<.<.<.<.<.<.<.",
"<.<.<.<.<.<.<.<.<.<.<.<.<.<.<.<.<.<.<.<.<.<.<.<.<.<.<.<.<.<.<.<.",
"<.<.<.<.<.<.<.<.<.<.<.<.<.<.<.<.<.<.<.<.<.<.<.<.<.<.<.<.<.<.<.<.",
"<.<.<.<.<.<.<.<.<.<.<.<.<.<.<.<.<.<.<.<.<.<.<.<.<.<.<.<.<.<.<.<."
};
