/* XPM */
static char *kodi[] = {
/* columns rows colors chars-per-pixel */
"16 16 112 2 ",
"   c #088CC0",
".  c #0D8FC2",
"X  c #0C8FC3",
"o  c #0F91C3",
"O  c #0F92C5",
"+  c #0A95CB",
"@  c #1391C2",
"#  c #1592C3",
"$  c #1593C4",
"%  c #1595C6",
"&  c #1993C3",
"*  c #1B95C6",
"=  c #1D96C6",
"-  c #1296C9",
";  c #1897C9",
":  c #1699CC",
">  c #169ACD",
",  c #179CCF",
"<  c #199ACD",
"1  c #1B9ACC",
"2  c #1A9BCE",
"3  c #1B9CCE",
"4  c #189CD0",
"5  c #1E9ED0",
"6  c #1F9FD1",
"7  c #1C9FD2",
"8  c #189FD4",
"9  c #219DCD",
"0  c #229DCC",
"q  c #249FCF",
"w  c #1EA0D3",
"e  c #1FA2D5",
"r  c #25A0D0",
"t  c #20A4D7",
"y  c #2CA5D5",
"u  c #2CA7D7",
"i  c #20A5D8",
"p  c #2AA7D8",
"a  c #2BA8D9",
"s  c #2FAAD9",
"d  c #2CAADA",
"f  c #37A5D0",
"g  c #3EA7D0",
"h  c #3AA8D3",
"j  c #31A9D8",
"k  c #40ACD6",
"l  c #92BFD1",
"z  c #8DC7DE",
"x  c #97C0D0",
"c  c #95C2D3",
"v  c #94C2D5",
"b  c #9FC6D5",
"n  c #91C5D9",
"m  c #96C8DB",
"M  c #92C9DF",
"N  c #9BC8DA",
"B  c #98CADD",
"V  c #9FCBDC",
"C  c #9DCBDE",
"Z  c #A1C5D3",
"A  c #A5CDDD",
"S  c #A6CDDC",
"D  c #A8CFDE",
"F  c #A9D0DF",
"G  c #ACD0DF",
"H  c #93CBE1",
"J  c #9ACFE4",
"K  c #9FD0E3",
"L  c #9BD1E7",
"P  c #96D1E8",
"I  c #A5CFE0",
"U  c #A0D0E3",
"Y  c #A2D2E5",
"T  c #A4D3E6",
"R  c #AFD3E1",
"E  c #AED4E3",
"W  c #ACD5E5",
"Q  c #ADD7E7",
"!  c #A4D5E8",
"~  c #A5D5E8",
"^  c #A4D6EA",
"/  c #A8D9EC",
"(  c #ACDCEF",
")  c #B2D7E6",
"_  c #B0D9E8",
"`  c #B0D9EA",
"'  c #ADDDF0",
"]  c #B6E1F2",
"[  c #BBE2F1",
"{  c #C2D6DE",
"}  c #CAE4EE",
"|  c #C7E5F1",
" . c #EDE6E3",
".. c #E1E6E8",
"X. c #E4E8EA",
"o. c #E6E9EA",
"O. c #F7EBE6",
"+. c #FBEFEB",
"@. c #FBF3EF",
"#. c #FFF3EE",
"$. c #FFF5ED",
"%. c #FEF4F0",
"&. c #FFF7F0",
"*. c #FFF6F2",
"=. c #FCF6F4",
"-. c #FFF8F1",
";. c #FFF9F4",
":. c #FEF8F6",
">. c #FFFFF7",
",. c #FFFEF9",
"<. c #FFFFFA",
"1. c None",
/* pixels */
"1.1.1.1.1.1.1.1.1.1.1.1.1.1.1.1.",
"1.1.1.1.1.1.1.] ' 1.1.1.1.1.1.1.",
"1.1.1.1.1.1.[ d i ( 1.1.1.1.1.1.",
"1.1.1.1.1.| a p s t / 1.1.1.1.1.",
"1.1.1.1.,.P 8 j u e ^ <.1.1.1.1.",
"1.1.1.} :.L 7 y w ! <.` ~ 1.1.1.",
"1.1.Q k =.J , 6 Y >._ 5 4 T 1.1.",
"1.) 2 h *.H + U ;.W 3 q r > K 1.",
"1.G < f @.M z -.%.E 1 9 0 : C 1.",
"1.1.S g o.X.#.I B &.R ; - V 1.1.",
"1.1.1.{ ..+.D % O m $.F N 1.1.1.",
"1.1.1.1. .A o * = X n O.1.1.1.1.",
"1.1.1.1.1.b $ # & . v 1.1.1.1.1.",
"1.1.1.1.1.1.Z @   c 1.1.1.1.1.1.",
"1.1.1.1.1.1.1.x l 1.1.1.1.1.1.1.",
"1.1.1.1.1.1.1.1.1.1.1.1.1.1.1.1."
};
