/* XPM */
static char *multimedia[] = {
/* columns rows colors chars-per-pixel */
"16 16 79 1 ",
"  c #303234",
". c #383A3B",
"X c #3D3F41",
"o c #484A4C",
"O c #4C4E50",
"+ c #4D4F51",
"@ c #535557",
"# c #5E6367",
"$ c #566069",
"% c #5B656E",
"& c #5C6670",
"* c #626C75",
"= c #696D71",
"- c #6E7276",
"; c #677078",
": c #68727B",
"> c #717579",
", c #767A7E",
"< c #7C8185",
"1 c #7F8387",
"2 c #7A8690",
"3 c #7E8892",
"4 c #7F8993",
"5 c #82868A",
"6 c #85898D",
"7 c #808A93",
"8 c #828C96",
"9 c #838D97",
"0 c #898D91",
"q c #858F98",
"w c #8C9094",
"e c #8E9296",
"r c #87919A",
"t c #88939E",
"y c #8A949C",
"u c #919599",
"i c #8E98A1",
"p c #8F99A2",
"a c #939DA6",
"s c #949EA7",
"d c #9A9EA2",
"f c #909CA9",
"g c #929DA9",
"h c #97A1AA",
"j c #99A4B0",
"k c #9AA6B2",
"l c #9EAAB7",
"z c #A3A7AB",
"x c #A4A8AC",
"c c #A5A9AD",
"v c #A8ACB0",
"b c #ABAFB3",
"n c #A8AEB4",
"m c #A1ADBA",
"M c #ACB0B4",
"N c #ADB2B6",
"B c #AFB3B7",
"V c #A4B0BD",
"C c #B1B5B9",
"Z c #B3B6BA",
"A c #B2B7BD",
"S c #B6BABE",
"D c #AAB6C4",
"F c #BBBFC3",
"G c #BFC3C7",
"H c #C7CCD0",
"J c #CACED2",
"K c #CBCFD3",
"L c #C2CDD8",
"P c #CDD1D5",
"I c #CED2D6",
"U c #C5D1DB",
"Y c #D5D9DD",
"T c #D6DADE",
"R c #D8DCE0",
"E c #DCE0E4",
"W c #DDE1E5",
"Q c #DFE2E5",
"! c None",
/* pixels */
"!!!!!!!!!Qg!!!!!",
"!!!!!!!!AYj!!!!!",
"!!!!!!!nCYl!!!!!",
"!!!!!!!bGRm!!!!!",
"!!!yy+zFKED!!!!!",
"!!!irOCJTWV!!!!!",
"!!!sh@FPIYk!!!!!",
"!!!UL@BFFHf!!!!!",
"!!!paodcxSt!!!!!",
"!!!*:X5euBq!!!!!",
"!!!%;.-5wN8!!!!!",
"!!!&$ =<0M9!!!!!",
"!!!!!!#,6M4!!!!!",
"!!!!!!!=1b7!!!!!",
"!!!!!!!!>v3!!!!!",
"!!!!!!!!!Z2!!!!!"
};
