/* XPM */
static char *network[] = {
/* columns rows colors chars-per-pixel */
"16 16 137 2 ",
"   c #434343",
".  c gray27",
"X  c #464646",
"o  c gray28",
"O  c #464749",
"+  c #474848",
"@  c #484848",
"#  c #484849",
"$  c #494949",
"%  c #484A4B",
"&  c #494A4B",
"*  c #4C4C4C",
"=  c #515151",
"-  c #565656",
";  c #5B5B5B",
":  c #5F5F5F",
">  c #525D69",
",  c #415671",
"<  c #465D77",
"1  c #4A5E75",
"2  c #4B627B",
"3  c #566373",
"4  c #656565",
"5  c #6A6A6A",
"6  c #6C6C6C",
"7  c gray43",
"8  c #656D78",
"9  c gray44",
"0  c #717171",
"q  c gray45",
"w  c #747474",
"e  c gray47",
"r  c #797979",
"t  c gray48",
"y  c #3A5D8B",
"u  c #3465A4",
"i  c #3465A5",
"p  c #3466A4",
"a  c #3566A4",
"s  c #3566A5",
"d  c #3666A4",
"f  c #3666A5",
"g  c #3667A5",
"h  c #3767A5",
"j  c #3967A3",
"k  c #3867A4",
"l  c #3768A6",
"z  c #3868A5",
"x  c #416DA6",
"c  c #6993C1",
"v  c #6994C1",
"b  c #6D9CCD",
"n  c #6D9CCE",
"m  c #6E9CCE",
"M  c #709ECF",
"N  c #769FCC",
"B  c #77A1CF",
"V  c #7AA3CE",
"C  c #78A2D0",
"Z  c #7AA4D3",
"A  c #7DA4D0",
"S  c #7EA7D4",
"D  c #808080",
"F  c gray55",
"G  c #8D8D8D",
"H  c #989898",
"J  c #9A9A9A",
"K  c #9B9B9B",
"L  c #9D9D9D",
"P  c gray63",
"I  c #A2A2A2",
"U  c #A4A4A4",
"Y  c #A5A5A4",
"T  c #A5A5A5",
"R  c #A7A7A7",
"E  c #A9A9A9",
"W  c #AAAAAA",
"Q  c gray67",
"!  c #ACACAC",
"~  c gray68",
"^  c #AEAEAE",
"/  c gray69",
"(  c gray70",
")  c #B4B4B4",
"_  c #B6B6B6",
"`  c #B7B7B7",
"'  c #B9B9B9",
"]  c #BBBBBB",
"[  c gray74",
"{  c #81A8D5",
"}  c #84ABD5",
"|  c #85ABD5",
" . c #87ADD7",
".. c #89AED8",
"X. c #8BB0D8",
"o. c #8BB0D9",
"O. c #8EB2D9",
"+. c #8EB2DA",
"@. c #90B3DA",
"#. c #91B4DA",
"$. c #91B4DB",
"%. c #92B5DB",
"&. c #93B5DB",
"*. c #95B6DC",
"=. c #94B7DC",
"-. c #95B7DC",
";. c #95B8DC",
":. c #99B9DD",
">. c #99BADD",
",. c #9ABADD",
"<. c #9CBADD",
"1. c #A9C4E2",
"2. c #B1C9E4",
"3. c #B6CEE7",
"4. c #B7CFE7",
"5. c #B8CFE8",
"6. c #B9CFE8",
"7. c #BED2E9",
"8. c #BED3E9",
"9. c #BED3EA",
"0. c #BED4EA",
"q. c #BFD4EA",
"w. c #C1C1C0",
"e. c gray77",
"r. c #C5C5C5",
"t. c gray78",
"y. c gray79",
"u. c #CBD3DD",
"i. c gray82",
"p. c #D1D2D5",
"a. c #C2D5EA",
"s. c #C4D7EB",
"d. c #C6D8EC",
"f. c #D9E2EE",
"g. c #DCE5EF",
"h. c #EAEEF4",
"j. c None",
/* pixels */
"t r r r r r r j.j.j.j.j.j.j.j.j.",
"e y.t.r.e.e.) w j.j.j.j.j.j.j.j.",
"q r./ ~ Q W ! G G F F F D 6 j.j.",
"7 w.! W R T U U ! _ ' ] I 5 j.j.",
"5 [ x f f f f f a a a a u u u l ",
"4 ` s 9.q.q.0.0.0.8.8.8.8.8.5.i ",
": ( a a.$.$.%.%.%.%.%.&.&.;.4.p ",
"; ^ g s.=.=.=.=.=.=.=.=.=.#.3.s ",
"- E d d.>.>.>.>.>.>.>.-.+.o.6.s ",
"= Y h 7.,.:.*.%.@.O... . .X.2.s ",
"* P z 1.{ Z Z Z Z Z Z Z Z S <.s ",
"@ K k | m n n v c c c b n M } s ",
"$ H j A B B 3 & % % O > N C V f ",
"o 8 , 2 2 2 X i.L K J + 1 2 < y ",
"p.f.f.f.f.f.  9 0 0 9 # u.f.g.h.",
"j.j.o o o o X . . . . o @ o o j."
};
