/* XPM */
static char *office[] = {
/* columns rows colors chars-per-pixel */
"16 16 79 1 ",
"  c black",
". c gray1",
"X c #090909",
"o c #0C0C0C",
"O c #0E0E0E",
"+ c #111111",
"@ c gray9",
"# c #181818",
"$ c gray10",
"% c gray11",
"& c #3C3C3C",
"* c #515151",
"= c gray32",
"- c #555753",
"; c #6A6A6A",
": c #6D6D6D",
"> c #787877",
", c #7B7B7B",
"< c gray50",
"1 c #808080",
"2 c #818181",
"3 c gray51",
"4 c #838383",
"5 c #848484",
"6 c gray52",
"7 c #868686",
"8 c gray53",
"9 c #888887",
"0 c #888888",
"q c gray55",
"w c #8D8D8D",
"e c #8E8E8E",
"r c gray63",
"t c gray68",
"y c #B1B1B1",
"u c gray70",
"i c gray71",
"p c #B6B6B6",
"a c #B7B7B7",
"s c gray72",
"d c #B9B9B9",
"f c gray73",
"g c #BBBBBB",
"h c #BCBCBC",
"j c gray74",
"k c gray",
"l c gray75",
"z c #C3C3C3",
"x c gray77",
"c c #C5C5C5",
"v c gray78",
"b c LightGray",
"n c #DADADA",
"m c #DFDFDF",
"M c #E2E2E2",
"N c gray89",
"B c #E4E4E4",
"V c gray90",
"C c #E6E6E6",
"Z c #E7E7E7",
"A c gray91",
"S c #EAEAEA",
"D c gray92",
"F c #ECECEC",
"G c gray93",
"H c #EEEEEE",
"J c #EFEFEF",
"K c gray94",
"L c #F1F1F1",
"P c gray95",
"I c #F3F3F3",
"U c #F4F4F4",
"Y c #F6F6F6",
"T c gray97",
"R c #F9F9F9",
"E c gray98",
"W c #FBFBFB",
"Q c white",
"! c None",
/* pixels */
"----------------",
"-hhhhhhhhhhhhhv-",
"-hwweeeeeeeeeev-",
"-bghhhhjkkkklzc-",
"9QMMNNBVVCZZZJQ<",
"9QMNBBVCCZZZSLQ>",
"9QN,%o=CZ$ mDHQ>",
"9QBmVwXBZt NLLQ>",
"9QVp@ :ZZu BIUQ>",
"9QVnCq.BSi APRQ>",
"9QV*#+;FLO&rHRQ>",
"9QCSFGLJPIIYEWQ>",
"9QRTTUUKLIPIIIQ>",
"9L122345567880y>",
"3xaasdffggggjjx>",
"!3>>>>>>>>>>>>>!"
};
