/* XPM */
static char *parole[] = {
/* columns rows colors chars-per-pixel */
"16 16 64 1 ",
"  c black",
". c #020202",
"X c #060606",
"o c #090909",
"O c #0C0C0C",
"+ c gray5",
"@ c gray6",
"# c gray7",
"$ c #151515",
"% c #181818",
"& c gray10",
"* c gray11",
"= c #1D1D1D",
"- c #1E1E1E",
"; c #202020",
": c gray13",
"> c #222222",
", c #232323",
"< c gray14",
"1 c #252525",
"2 c #272727",
"3 c #282828",
"4 c gray16",
"5 c gray17",
"6 c #2C2C2C",
"7 c #2D2D2D",
"8 c gray18",
"9 c #2F2F2F",
"0 c gray19",
"q c #323232",
"w c gray20",
"e c #343434",
"r c #353535",
"t c gray21",
"y c gray22",
"u c #555555",
"i c gray35",
"p c gray36",
"a c #626262",
"s c gray39",
"d c gray40",
"f c #676767",
"g c DimGray",
"h c gray42",
"j c #6D6D6D",
"k c gray49",
"l c #E20000",
"z c gray58",
"x c #979797",
"c c #A0A0A0",
"v c gray64",
"b c #A7A7A7",
"n c #AFAFAF",
"m c gray72",
"M c #C8C8C8",
"N c #CACACA",
"B c gray80",
"V c #DFDFDF",
"C c #E2E2E2",
"Z c gray91",
"A c gray94",
"S c #F1F1F1",
"D c white",
"F c None",
/* pixels */
"FFFFFFFFFFFFFFFF",
"F=************=F",
"F%usdghjjhgdsu%F",
"F$y70wtyytw07y$F",
"F#r580Bfeq085r#F",
"F@w357DDBa753w@F",
"FO9124DDDDz219OF",
"Fo6:,1DDNp1,:6oF",
"FX3-;:Mi>>:;-3XF",
"F.<&*=----=*&<.F",
"F +          + F",
"FmASSSSSSSSSSAmF",
"FnZllllxxkkkkZnF",
"FbVCCCCCCCCCCVbF",
"FvccccccccccccvF",
"FFFFFFFFFFFFFFFF"
};
