/* XPM */
static char *reiniciar[] = {
/* columns rows colors chars-per-pixel */
"48 48 133 2 ",
"   c black",
".  c #05090C",
"X  c #090909",
"o  c #080D11",
"O  c #0B1218",
"+  c #1E1E1F",
"@  c #1E2326",
"#  c #262626",
"$  c #272828",
"%  c #2B2B2B",
"&  c #2F3030",
"*  c #343434",
"=  c #3C3C3C",
"-  c #23384C",
";  c #393D40",
":  c #32506B",
">  c #355573",
",  c #375876",
"<  c #375978",
"1  c #395C7B",
"2  c #424242",
"3  c #4D4E4E",
"4  c #464F57",
"5  c #404E5A",
"6  c #4C565F",
"7  c #535353",
"8  c #5B5B5B",
"9  c #596168",
"0  c #626363",
"q  c #6C6C6C",
"w  c #616D76",
"e  c #65707A",
"r  c #6B757E",
"t  c #737373",
"y  c #7B7B7B",
"u  c #A99D3A",
"i  c #C8B22B",
"p  c #3B5F80",
"a  c #3D6385",
"s  c #3F6588",
"d  c #40678A",
"f  c #41688C",
"g  c #446D93",
"h  c #49749C",
"j  c #6C7983",
"k  c #64798D",
"l  c #6D7D8B",
"z  c #717A83",
"x  c #787E83",
"c  c #717F8B",
"v  c #4A77A1",
"b  c #4D7AA5",
"n  c #4F7EAA",
"m  c #507FAB",
"M  c #75818B",
"N  c #7A848C",
"B  c #758593",
"V  c #7D8790",
"C  c #7E8A94",
"Z  c #5382AE",
"A  c #5685B0",
"S  c #5886B1",
"D  c #5D8AB3",
"F  c #628EB6",
"G  c #6690B7",
"H  c #6791B8",
"J  c #6B94BA",
"K  c #739ABE",
"L  c #799EC0",
"P  c #7DA1C2",
"I  c #848484",
"U  c #8D8D8D",
"Y  c #838D96",
"T  c #808D98",
"R  c #85909A",
"E  c #8B949C",
"W  c #949494",
"Q  c #979898",
"!  c #9D9D9D",
"~  c #8B97A0",
"^  c #8F9BA5",
"/  c #929CA5",
"(  c #929EA8",
")  c #9FA2A4",
"_  c #95A1A9",
"`  c #9AA4AC",
"'  c #9DA7B0",
"]  c #9FA9B2",
"[  c #A4A4A4",
"{  c #A4A8AC",
"}  c #ABABAB",
"|  c #A2ACB3",
" . c #ABB1B6",
".. c #A6B0B8",
"X. c #ACB4BC",
"o. c #B4B4B4",
"O. c #B1B5B9",
"+. c #B3B9BE",
"@. c #BABABA",
"#. c #83A5C5",
"$. c #86A8C7",
"%. c #8BACC9",
"&. c #94B1CD",
"*. c #9CB7D1",
"=. c #9EB8D1",
"-. c #B5BBC1",
";. c #B8BFC3",
":. c #A4BDD4",
">. c #AAC1D7",
",. c #AEC4D9",
"<. c #B2C7DB",
"1. c #B4C9DC",
"2. c #B9CCDE",
"3. c #BDCFE0",
"4. c #BED0E1",
"5. c #C4C4C4",
"6. c #CBCBCB",
"7. c #D4D4D4",
"8. c #D7D8D8",
"9. c #DCDCDC",
"0. c #C3D3E3",
"q. c #C8D7E5",
"w. c #CBD9E7",
"e. c #D7E2EC",
"r. c #E4E4E4",
"t. c #EBEBEB",
"y. c #E2EAF1",
"u. c #EFF2F3",
"i. c #F3F3F3",
"p. c #F4F7F9",
"a. c #F6F9FB",
"s. c #F9FAFA",
"d. c None",
/* pixels */
"d.d.d.d.d.d.d.d.d.d.d.d.d.d.d.d.d.d.d.d.d.d.d.d.d.d.d.d.d.d.d.d.d.d.d.d.d.d.d.d.d.d.d.d.d.d.d.d.",
"d.d.d.d.d.d.d.d.d.d.d.d.d.d.d.d.d.d.d.d.d.d.d.d.d.d.d.d.d.d.d.d.d.d.d.d.d.d.d.d.d.d.d.d.d.d.d.d.",
"d.d.d.d.d.d.d.d.d.d.d.d.d.d.d.d.d.d.d.d.d.d.d.d.d.d.d.d.d.d.d.d.d.d.d.d.d.d.d.d.d.d.d.d.d.d.d.d.",
"d.d.d.d.d.d.d.d.d.d.                                                    d.d.d.d.d.d.d.d.d.d.d.d.",
"d.d.d.d.d.d.d.d.d.  i.i.i.i.i.t.    t.t.t.i.i.i.i.i.i.i.i.i.s.i.i.s.i.7.  d.d.d.d.d.d.d.d.d.d.d.",
"d.d.d.d.d.d.d.d.  i.s.i.i.i.u.t.  K   7.9.9.t.r.t.t.t.t.r.r.r.r.9.r.7.y d.  d.d.d.d.d.d.d.d.d.d.",
"d.d.d.d.d.d.d.d.  i.u.i.i.t.t.r.  ,.#.  7.9.9.t.r.r.r.r.r.9.r.9.9.9.9.o.q   d.d.d.d.d.d.d.d.d.d.",
"d.d.d.d.d.d.d.d.  i.t.u.o.} ! !   1.,.#.  U Q Q ! ! [ ! ! ! ! @.6.9.9.9.7   d.d.d.d.d.d.d.d.d.d.",
"d.d.d.d.d.d.d.d.  i.t.t.{         <.<.,.#.                        t.9.9.7   d.d.d.d.d.d.d.d.d.d.",
"d.d.d.d.d.d.d.d.  +.k             3.3.3.3.#.  9.t.i.i.s.s.s.6.}   t.8.7.7   d.d.d.d.d.d.d.d.d.d.",
"d.d.d.d.d.d.d.d.  < K <.0.q.0.0.0.0.0.0.1.1.#.  r x z z j r e w   t.8.7.7   d.d.d.d.d.d.d.d.d.d.",
"d.d.d.d.d.d.d.  D >.3.0.w.w.q.q.q.0.4.0.2.<.>.#.  _ _ _ _ ^ E R   t.8.7.7   d.d.d.d.d.d.d.d.d.d.",
"d.d.d.d.d.d.  &.1.2.0.0.0.q.0.0.0.4.3.3.2.<.,.,.J   | | ] ' ( ^   t.7.7.7   d.d.d.d.d.d.d.d.d.d.",
"d.d.d.d.d.  #.2.2.2.2.3.2.4.3.1.1.<.1.<.,.>.>.:.:.S   X.X.X.| `   t.7.6.7   d.d.d.d.d.d.d.d.d.d.",
"d.d.d.d.d.  2.2.2.3.2.1.*.&.&.&.%.%.%.$.#.%.%.%.%.%.K   -.X.X.'   r.6.6.7   d.d.d.d.d.d.d.d.d.d.",
"d.d.d.d.  D <.1.4.1.,.%.J J J J J G G F F D A F m f   O.-.-.X.B       E 3   d.d.d.d.d.d.d.d.d.d.",
"d.d.d.d.  %.1.<.,.*.K J J G G G G G G G G F D F g    .O.-.-.l   D b a       d.d.d.d.d.d.d.d.d.d.",
"d.d.d.d.  =.:.,.,.K H H G F G G G J G J G F F d    .O.-.;.-...T . m P D g   d.d.d.d.d.d.d.d.d.d.",
"d.d.d.d.  &.&.*.&.J F F D n b g g G G J G F 1   {  .+.-.X...' ~     f &.J g   d.d.d.d.d.d.d.d.d.",
"d.d.d.d.  %.%.*.J F v a           D F F F a   _ { X.X.X...` ( ~   O.  F &.K >   d.d.d.d.d.d.d.d.",
"d.d.d.d.  J J L K D f   6   r z   D F D 1   E ^ _ ' ] ` (   R C   8.j O >.%.S   d.d.d.d.d.d.d.d.",
"d.d.d.d.  v J K P F   l I   r z   D F 1   N Y E ^ ( ^ E     M c   9.R   0.=.L <   d.d.d.d.d.d.d.",
"d.d.d.d.  , A K K J   ) ! X       S f                   q.        8.@.  0.0.=.v   d.d.d.d.d.d.d.",
"d.d.d.d.d.  h K $.L   @.@.9.r.r.  s   ;.6.7.9.r.r.r.  y.%.  6.7.8.r.)   2.1.:.D >   d.d.d.d.d.d.",
"d.d.d.d.d.  < Z K &.  R 6.7.8.7.    @.@.5.6.6.7.6.  a.=.:.  } 6.7.@.c   ,.1.>.G f   d.d.d.d.d.d.",
"d.d.d.d.d.d.  v G #.o l 5.7.7.t.  5.7.o.6.t.@.6.  s.>.>.,.  o.i u 4   J ,.1.,.n h     d.d.d.d.d.",
"d.d.d.d.d.d.  : A K b   E 6.7.5.) 6.o.W 6.@.U   s.,.,.,.,.          A #.,.,.,.A m       d.d.d.d.",
"d.d.d.d.d.d.d.  s m K <   ; 3 3 3 3 7 3 7 7   a.=.,.,.,.<.#.&.:.=.>.>.>.,.<.:.n m   I d.  d.d.d.",
"d.d.d.d.d.d.d.d.  d n J v . + & # * % * %   a.:.>.,.,.,.1.<.<.,.>.,.,.<.,.<.#.A Z       d.d.d.d.",
"d.d.d.d.d.d.d.d.d.    s b S   @ = * = =   u.1.:.>.,.<.1.<.<.1.,.<.,.,.:.:.%.S S h   I d.  d.d.d.",
"d.d.d.d.d.d.d.d.d.d.                    e.:.>.>.>.1.,.,.<.,.,.,.,.,.,.&.F A A D 1       d.d.d.d.",
"d.d.d.d.d.d.d.d.                      H L G H J J L J J G J J H H G G D A A S F   6 I d.  d.d.d.",
"d.d.d.d.d.d.d.  i.i.t.r.r.9.r.t.t.t.t.  1 A m Z m A A Z Z Z A A A A A A S S D g   I       d.d.d.",
"d.d.d.d.d.d.  i.t.t.u.o.r.t.r.! t.r.} 9.  < n n m m n n Z Z Z A A A S S D S v     I   d.d.d.d.d.",
"d.d.d.d.d.    i.t.! o.t.r.[ ! r.! Q 8.o.W   < n b n n n m Z Z Z S A S S Z ,   9 I q   d.d.d.d.d.",
"d.d.d.d.d.  s.t.t.t.5.t.t.t.9.r.r.8.9.7.6.5.  < m b n n n Z A A A Z Z f -   x *       d.d.d.d.d.",
"d.d.d.d.    i.t.6.5.t.9.t.i.6.u.u.5.t.t.! r.8.  < n n n m             5 V o.q = %   d.d.d.d.d.d.",
"d.d.d.d.  i.t.i.i.i.i.o.@.o.r.o.o.9.} t 7.! Q 5.  < m n n   W } @.y ! ! 8 0 [ [ 2     d.d.d.d.d.",
"d.d.d.d.  i.i.i.! @.5.i.i.i.u.i.i.i.u.i.i.t.r.t }   < b h   o.@.5.5.6.0 } 7.5.7 2 &   d.d.d.d.d.",
"d.d.d.  i.t.o.I 5.t.r.o.I I I y y t t t t q q } 5.@.  1 Z   q 0 7 8 7 3 o.y y } } 2   d.d.d.d.d.",
"d.d.d.  i.t.t.t.t.r.t.r.r.r.r.r.9.r.9.9.9.7.7.7.6.5.@.  <   [ o.o.@.@.o.o.o.} } } 2   d.d.d.d.d.",
"d.d.d.  d.# % % % % % % % % % % % % $ % % % % % $ $ # #     # $ $ $ % % $ % % % $ +   d.d.d.d.d.",
"d.d.d.                                                                                d.d.d.d.d.",
"d.d.d.d.d.d.d.d.d.d.d.d.d.d.d.d.d.d.d.d.d.d.d.d.d.d.d.d.d.d.d.d.d.d.d.d.d.d.d.d.d.d.d.d.d.d.d.d.",
"d.d.d.d.d.d.d.d.d.d.d.d.d.d.d.d.d.d.d.d.d.d.d.d.d.d.d.d.d.d.d.d.d.d.d.d.d.d.d.d.d.d.d.d.d.d.d.d.",
"d.d.d.d.d.d.d.d.d.d.d.d.d.d.d.d.d.d.d.d.d.d.d.d.d.d.d.d.d.d.d.d.d.d.d.d.d.d.d.d.d.d.d.d.d.d.d.d.",
"d.d.d.d.d.d.d.d.d.d.d.d.d.d.d.d.d.d.d.d.d.d.d.d.d.d.d.d.d.d.d.d.d.d.d.d.d.d.d.d.d.d.d.d.d.d.d.d.",
"d.d.d.d.d.d.d.d.d.d.d.d.d.d.d.d.d.d.d.d.d.d.d.d.d.d.d.d.d.d.d.d.d.d.d.d.d.d.d.d.d.d.d.d.d.d.d.d."
};
