/* XPM */
static char *ristretto[] = {
/* columns rows colors chars-per-pixel */
"16 16 135 2 ",
"   c #3B3735",
".  c #3C3736",
"X  c #3B3A33",
"o  c #3F3936",
"O  c #3E3D38",
"+  c #573B0C",
"@  c #403F38",
"#  c #654510",
"$  c #664510",
"%  c #6F4D17",
"&  c #464637",
"*  c #464737",
"=  c #454438",
"-  c #454538",
";  c #464638",
":  c #48463C",
">  c #494544",
",  c #4A4645",
"<  c #525047",
"1  c #52514C",
"2  c #585751",
"3  c #636354",
"4  c #646852",
"5  c #686A55",
"6  c #786E5E",
"7  c #6C7059",
"8  c #6D715A",
"9  c #71745E",
"0  c #6E7562",
"q  c #757762",
"w  c #797160",
"e  c #7C7461",
"r  c #87764C",
"t  c #87774C",
"y  c #8D7959",
"u  c #8F7B5A",
"i  c #827A69",
"p  c #8B867A",
"a  c #8C877A",
"s  c #9C907F",
"d  c #8B8B8B",
"f  c gray55",
"g  c #8D8D8D",
"h  c #909090",
"j  c gray57",
"k  c #929292",
"l  c #939393",
"z  c gray58",
"x  c #949495",
"c  c #959595",
"v  c #959596",
"b  c #979796",
"n  c #989899",
"m  c #9A9B9B",
"M  c #9D9D9D",
"N  c #9F9F9F",
"B  c #A59884",
"V  c #A2A2A1",
"C  c #A4A4A4",
"Z  c #A9A7A3",
"A  c #ABA9A5",
"S  c gray66",
"D  c #ABABAA",
"F  c #ACACAB",
"G  c #B1B1B1",
"H  c gray71",
"J  c gray72",
"K  c #B9B9B8",
"L  c #BDBDBC",
"P  c gray",
"I  c #C0C0C0",
"U  c #C2C2C1",
"Y  c gray76",
"T  c #C4C4C3",
"R  c gray77",
"E  c #C5C5C4",
"W  c #C8C8C7",
"Q  c #C8C8C8",
"!  c #C9C9C8",
"~  c #CACACA",
"^  c #CBCBCA",
"/  c #CCCCCA",
"(  c #CCCCCB",
")  c gray80",
"_  c #CDCDCC",
"`  c #CECECD",
"'  c #CFCFCE",
"]  c #D0D0CE",
"[  c #D0D0CF",
"{  c #D0D0D0",
"}  c #D1D1D0",
"|  c #D2D2D0",
" . c #D2D2D1",
".. c #D2D2D2",
"X. c #D3D3D2",
"o. c gray83",
"O. c #D5D5D4",
"+. c #D5D5D5",
"@. c #D7D7D5",
"#. c #D7D7D6",
"$. c #D8D8D6",
"%. c #D8D8D7",
"&. c #D9D9D7",
"*. c #D9D9D8",
"=. c #DADAD8",
"-. c #DBDBDA",
";. c #DDDDDC",
":. c #DEDEDC",
">. c #DEDEDD",
",. c #DFDFDE",
"<. c #E0E0DE",
"1. c #E0E0DF",
"2. c #E1E1DF",
"3. c #E2E2E0",
"4. c #E2E2E1",
"5. c #E6E6E4",
"6. c #EAEAE8",
"7. c #F0F3F5",
"8. c #F0F3F6",
"9. c #F3F5F7",
"0. c #F2F6F8",
"q. c #F3F6F8",
"w. c #F4F7F9",
"e. c #F4F7FA",
"r. c #F5F8FA",
"t. c #F5F8FB",
"y. c #F5F9FB",
"u. c #F6F8FA",
"i. c #F7F9FA",
"p. c #F6F9FB",
"a. c #F7F9FB",
"s. c #F7FAFC",
"d. c #F8FAFC",
"f. c #F9FBFD",
"g. c None",
/* pixels */
"g.g.g.g.l x x x x x x x v v v z ",
"z v v v x n n n n n n m 8.w.s.l ",
"l y.0.7.7.7.8.8.8.w.s.h o , w.l ",
"l p.1 = ; ; = @ o , w.j 2 . 9.l ",
"l t.- q 9 7 5 3 2 . 9.j <   w.l ",
"l e.* 8 0 +.+.+.+.Q Q l :   p.l ",
"l r.& 4 ` Z p 6 w a A R X   a.k ",
"l q.= ) e + $ % % # + i S   d.k ",
"l 9.O ) ,.B u t r y s S f P P k ",
"l r.> ) ;.5.6.4.=.} U V d i.P k ",
"l f.u.) %.<.3.:.@.' L M C P J k ",
"l f.f.d.Y $.*.@.| ^ G N l l l c ",
"z Y E T I T / ! E H C K W ( ~ g.",
"[ >.-.O...F l b k g D  .} -.,.[ ",
"g.[ 1.&.]  .X.o.o. .{ _ #.2.[ g.",
"g.g.[ [ [ [ [ } | [ [ [ [ [ g.g."
};
